<svg width="285" height="158" viewBox="0 0 285 158" fill="none" xmlns="http://www.w3.org/2000/svg">
<g clip-path="url(#clip0_908_227)">
<path d="M108.5 7.5H7.5V150.5H108.5V7.5Z" stroke="black" stroke-width="15"/>
<path d="M44 58H28V143H44V58Z" fill="black"/>
<path fill-rule="evenodd" clip-rule="evenodd" d="M86 68H70V114L86 100.771V68Z" fill="black"/>
<path d="M76 58H44V74H76V58Z" fill="black"/>
<path d="M94 49H77V55H94V49Z" fill="black"/>
<path d="M94 66V49H88V66H94Z" fill="black"/>
<path fill-rule="evenodd" clip-rule="evenodd" d="M71 98H44V114H70L71 113V98Z" fill="black"/>
</g>
<path d="M140 81.4061H144.133V85.5391H140V81.4061ZM144.133 81.4061H148.266V85.5391H144.133V81.4061ZM144.133 77.2732H148.266V81.4061H144.133V77.2732ZM144.133 73.1402H148.266V77.2732H144.133V73.1402ZM144.133 69.0073H148.266V73.1402H144.133V69.0073ZM144.133 64.8744H148.266V69.0073H144.133V64.8744ZM144.133 60.7414H148.266V64.8744H144.133V60.7414ZM140 60.7414H144.133V64.8744H140V60.7414ZM140 64.8744H144.133V69.0073H140V64.8744ZM140 69.0073H144.133V73.1402H140V69.0073ZM140 73.1402H144.133V77.2732H140V73.1402ZM140 77.2732H144.133V81.4061H140V77.2732ZM140 56.6085H144.133V60.7414H140V56.6085ZM144.133 56.6085H148.266V60.7414H144.133V56.6085ZM144.133 52.4755H148.266V56.6085H144.133V52.4755ZM144.133 48.3426H148.266V52.4755H144.133V48.3426ZM144.133 44.2097H148.266V48.3426H144.133V44.2097ZM140 44.2097H144.133V48.3426H140V44.2097ZM140 48.3426H144.133V52.4755H140V48.3426ZM140 52.4755H144.133V56.6085H140V52.4755ZM152.431 56.6085H156.564V60.7414H152.431V56.6085ZM152.431 52.4755H156.564V56.6085H152.431V52.4755ZM156.564 52.4755H160.697V56.6085H156.564V52.4755ZM156.564 56.6085H160.697V60.7414H156.564V56.6085ZM156.564 60.7414H160.697V64.8744H156.564V60.7414ZM156.564 64.8744H160.697V69.0073H156.564V64.8744ZM156.564 69.0073H160.697V73.1402H156.564V69.0073ZM152.431 69.0073H156.564V73.1402H152.431V69.0073ZM152.431 64.8744H156.564V69.0073H152.431V64.8744ZM152.431 60.7414H156.564V64.8744H152.431V60.7414ZM152.431 73.1402H156.564V77.2732H152.431V73.1402ZM156.564 73.1402H160.697V77.2732H156.564V73.1402ZM156.564 77.2732H160.697V81.4061H156.564V77.2732ZM156.564 81.4061H160.697V85.5391H156.564V81.4061ZM152.431 81.4061H156.564V85.5391H152.431V81.4061ZM152.431 77.2732H156.564V81.4061H152.431V77.2732ZM173.096 81.4061H177.229V85.5391H173.096V81.4061ZM177.229 81.4061H181.362V85.5391H177.229V81.4061ZM177.229 77.2732H181.362V81.4061H177.229V77.2732ZM177.229 73.1402H181.362V77.2732H177.229V73.1402ZM177.229 69.0073H181.362V73.1402H177.229V69.0073ZM177.229 64.8744H181.362V69.0073H177.229V64.8744ZM177.229 60.7414H181.362V64.8744H177.229V60.7414ZM177.229 56.6085H181.362V60.7414H177.229V56.6085ZM173.096 64.8744H177.229V69.0073H173.096V64.8744ZM173.096 69.0073H177.229V73.1402H173.096V69.0073ZM173.096 73.1402H177.229V77.2732H173.096V73.1402ZM173.096 77.2732H177.229V81.4061H173.096V77.2732ZM173.096 60.7414H177.229V64.8744H173.096V60.7414ZM160.697 56.6085H164.83V60.7414H160.697V56.6085ZM164.83 56.6085H168.963V60.7414H164.83V56.6085ZM168.963 56.6085H173.096V60.7414H168.963V56.6085ZM168.963 52.4755H173.096V56.6085H168.963V52.4755ZM173.096 52.4755H177.229V56.6085H173.096V52.4755ZM173.096 56.6085H177.229V60.7414H173.096V56.6085ZM164.83 52.4755H168.963V56.6085H164.83V52.4755ZM185.505 56.6085H189.638V60.7414H185.505V56.6085ZM185.505 52.4755H189.638V56.6085H185.505V52.4755ZM189.638 52.4755H193.771V56.6085H189.638V52.4755ZM189.638 56.6085H193.771V60.7414H189.638V56.6085ZM189.638 60.7414H193.771V64.8744H189.638V60.7414ZM189.638 64.8744H193.771V69.0073H189.638V64.8744ZM189.638 69.0073H193.771V73.1402H189.638V69.0073ZM185.505 69.0073H189.638V73.1402H185.505V69.0073ZM185.505 64.8744H189.638V69.0073H185.505V64.8744ZM185.505 60.7414H189.638V64.8744H185.505V60.7414ZM185.505 73.1402H189.638V77.2732H185.505V73.1402ZM189.638 73.1402H193.771V77.2732H189.638V73.1402ZM189.638 77.2732H193.771V81.4061H189.638V77.2732ZM189.638 81.4061H193.771V85.5391H189.638V81.4061ZM185.505 81.4061H189.638V85.5391H185.505V81.4061ZM185.505 77.2732H189.638V81.4061H185.505V77.2732ZM206.17 81.4061H210.303V85.5391H206.17V81.4061ZM210.303 77.2732H214.436V81.4061H210.303V77.2732ZM210.303 73.1402H214.436V77.2732H210.303V73.1402ZM210.303 69.0073H214.436V73.1402H210.303V69.0073ZM210.303 64.8744H214.436V69.0073H210.303V64.8744ZM210.303 60.7414H214.436V64.8744H210.303V60.7414ZM210.303 56.6085H214.436V60.7414H210.303V56.6085ZM206.17 64.8744H210.303V69.0073H206.17V64.8744ZM206.17 69.0073H210.303V73.1402H206.17V69.0073ZM206.17 73.1402H210.303V77.2732H206.17V73.1402ZM206.17 77.2732H210.303V81.4061H206.17V77.2732ZM206.17 60.7414H210.303V64.8744H206.17V60.7414ZM193.771 56.6085H197.904V60.7414H193.771V56.6085ZM197.904 56.6085H202.037V60.7414H197.904V56.6085ZM202.037 56.6085H206.17V60.7414H202.037V56.6085ZM202.037 52.4755H206.17V56.6085H202.037V52.4755ZM206.17 52.4755H210.303V56.6085H206.17V52.4755ZM206.17 56.6085H210.303V60.7414H206.17V56.6085ZM197.904 52.4755H202.037V56.6085H197.904V52.4755ZM185.505 44.2097H189.638V48.3426H185.505V44.2097ZM189.638 44.2097H193.771V48.3426H189.638V44.2097ZM189.638 48.3426H193.771V52.4755H189.638V48.3426ZM185.505 48.3426H189.638V52.4755H185.505V48.3426ZM193.771 81.4061H197.904V85.5391H193.771V81.4061ZM197.904 81.4061H202.037V85.5391H197.904V81.4061ZM202.037 81.4061H206.17V85.5391H202.037V81.4061ZM202.037 77.2732H206.17V81.4061H202.037V77.2732ZM197.904 77.2732H202.037V81.4061H197.904V77.2732ZM193.771 77.2732H197.904V81.4061H193.771V77.2732ZM226.846 52.4755H230.979V56.6085H226.846V52.4755ZM222.713 52.4755H226.846V56.6085H222.713V52.4755ZM222.713 56.6085H226.846V60.7414H222.713V56.6085ZM226.846 56.6085H230.979V60.7414H226.846V56.6085ZM230.979 52.4755H235.111V56.6085H230.979V52.4755ZM235.111 52.4755H239.244V56.6085H235.111V52.4755ZM239.244 52.4755H243.377V56.6085H239.244V52.4755ZM239.244 56.6085H243.377V60.7414H239.244V56.6085ZM235.111 56.6085H239.244V60.7414H235.111V56.6085ZM239.244 64.8744H243.377V69.0073H239.244V64.8744ZM243.377 56.6085H247.51V60.7414H243.377V56.6085ZM243.377 60.7414H247.51V64.8744H243.377V60.7414ZM243.377 64.8744H247.51V69.0073H243.377V64.8744ZM243.377 69.0073H247.51V73.1402H243.377V69.0073ZM243.377 73.1402H247.51V77.2732H243.377V73.1402ZM243.377 77.2732H247.51V81.4061H243.377V77.2732ZM239.244 77.2732H243.377V81.4061H239.244V77.2732ZM239.244 73.1402H243.377V77.2732H239.244V73.1402ZM239.244 69.0073H243.377V73.1402H239.244V69.0073ZM239.244 60.7414H243.377V64.8744H239.244V60.7414ZM235.111 77.2732H239.244V81.4061H235.111V77.2732ZM239.244 81.4061H243.377V85.5391H239.244V81.4061ZM235.111 81.4061H239.244V85.5391H235.111V81.4061ZM230.979 81.4061H235.111V85.5391H230.979V81.4061ZM226.846 81.4061H230.979V85.5391H226.846V81.4061ZM222.713 81.4061H226.846V85.5391H222.713V81.4061ZM222.713 77.2732H226.846V81.4061H222.713V77.2732ZM226.846 77.2732H230.979V81.4061H226.846V77.2732ZM222.713 73.1402H226.846V77.2732H222.713V73.1402ZM218.58 77.2732H222.713V81.4061H218.58V77.2732ZM218.58 73.1402H222.713V77.2732H218.58V73.1402ZM218.58 69.0073H222.713V73.1402H218.58V69.0073ZM218.58 64.8744H222.713V69.0073H218.58V64.8744ZM218.58 60.7414H222.713V64.8744H218.58V60.7414ZM218.58 56.6085H222.713V60.7414H218.58V56.6085ZM222.713 60.7414H226.846V64.8744H222.713V60.7414ZM222.713 64.8744H226.846V69.0073H222.713V64.8744ZM222.713 69.0073H226.846V73.1402H222.713V69.0073ZM230.979 77.2732H235.111V81.4061H230.979V77.2732ZM230.979 56.6085H235.111V60.7414H230.979V56.6085ZM251.654 77.2732H255.787V81.4061H251.654V77.2732ZM251.654 73.1402H255.787V77.2732H251.654V73.1402ZM255.787 73.1402H259.92V77.2732H255.787V73.1402ZM255.787 77.2732H259.92V81.4061H255.787V77.2732ZM255.787 69.0073H259.92V73.1402H255.787V69.0073ZM259.92 69.0073H264.053V73.1402H259.92V69.0073ZM268.186 69.0073H272.319V73.1402H268.186V69.0073ZM272.319 69.0073H276.452V73.1402H272.319V69.0073ZM272.319 77.2732H276.452V81.4061H272.319V77.2732ZM276.452 77.2732H280.585V81.4061H276.452V77.2732ZM276.452 73.1402H280.585V77.2732H276.452V73.1402ZM259.92 64.8744H264.053V69.0073H259.92V64.8744ZM264.053 64.8744H268.186V69.0073H264.053V64.8744ZM268.186 64.8744H272.319V69.0073H268.186V64.8744ZM268.186 60.7414H272.319V64.8744H268.186V60.7414ZM272.319 60.7414H276.452V64.8744H272.319V60.7414ZM272.319 56.6085H276.452V60.7414H272.319V56.6085ZM272.319 52.4755H276.452V56.6085H272.319V52.4755ZM276.452 52.4755H280.585V56.6085H276.452V52.4755ZM276.452 56.6085H280.585V60.7414H276.452V56.6085ZM259.92 60.7414H264.053V64.8744H259.92V60.7414ZM255.787 60.7414H259.92V64.8744H255.787V60.7414ZM255.787 56.6085H259.92V60.7414H255.787V56.6085ZM255.787 52.4755H259.92V56.6085H255.787V52.4755ZM251.654 52.4755H255.787V56.6085H251.654V52.4755ZM251.654 56.6085H255.787V60.7414H251.654V56.6085ZM259.92 73.1402H264.053V77.2732H259.92V73.1402ZM268.186 73.1402H272.319V77.2732H268.186V73.1402ZM272.319 73.1402H276.452V77.2732H272.319V73.1402ZM259.92 56.6085H264.053V60.7414H259.92V56.6085ZM268.186 56.6085H272.319V60.7414H268.186V56.6085ZM264.053 60.7414H268.186V64.8744H264.053V60.7414ZM264.053 69.0073H268.186V73.1402H264.053V69.0073ZM251.654 81.4061H255.787V85.5391H251.654V81.4061ZM255.787 81.4061H259.92V85.5391H255.787V81.4061ZM272.319 81.4061H276.452V85.5391H272.319V81.4061ZM276.452 81.4061H280.585V85.5391H276.452V81.4061ZM140 106.21H144.133V110.343H140V106.21ZM144.133 106.21H148.266V110.343H144.133V106.21ZM148.266 106.21H152.399V110.343H148.266V106.21ZM152.399 106.21H156.532V110.343H152.399V106.21ZM156.532 106.21H160.665V110.343H156.532V106.21ZM160.665 106.21H164.798V110.343H160.665V106.21ZM160.665 110.343H164.798V114.476H160.665V110.343ZM156.532 110.343H160.665V114.476H156.532V110.343ZM152.399 110.343H156.532V114.476H152.399V110.343ZM148.266 110.343H152.399V114.476H148.266V110.343ZM144.133 110.343H148.266V114.476H144.133V110.343ZM140 110.343H144.133V114.476H140V110.343ZM164.798 110.343H168.931V114.476H164.798V110.343ZM160.665 114.476H164.798V118.608H160.665V114.476ZM164.798 114.476H168.931V118.608H164.798V114.476ZM164.798 118.608H168.931V122.741H164.798V118.608ZM164.798 122.741H168.931V126.874H164.798V122.741ZM160.665 122.741H164.798V126.874H160.665V122.741ZM160.665 118.608H164.798V122.741H160.665V118.608ZM160.665 126.874H164.798V131.007H160.665V126.874ZM160.665 131.007H164.798V135.14H160.665V131.007ZM156.532 131.007H160.665V135.14H156.532V131.007ZM156.532 126.874H160.665V131.007H156.532V126.874ZM152.399 126.874H156.532V131.007H152.399V126.874ZM152.399 131.007H156.532V135.14H152.399V131.007ZM148.266 131.007H152.399V135.14H148.266V131.007ZM148.266 126.874H152.399V131.007H148.266V126.874ZM144.133 126.874H148.266V131.007H144.133V126.874ZM140 126.874H144.133V131.007H140V126.874ZM140 131.007H144.133V135.14H140V131.007ZM144.133 131.007H148.266V135.14H144.133V131.007ZM140 114.476H144.133V118.608H140V114.476ZM144.133 114.476H148.266V118.608H144.133V114.476ZM144.133 118.608H148.266V122.741H144.133V118.608ZM144.133 122.741H148.266V126.874H144.133V122.741ZM140 118.608H144.133V122.741H140V118.608ZM140 122.741H144.133V126.874H140V122.741ZM140 135.14H144.133V139.273H140V135.14ZM144.133 135.14H148.266V139.273H144.133V135.14ZM144.133 139.273H148.266V143.406H144.133V139.273ZM144.133 143.406H148.266V147.539H144.133V143.406ZM140 143.406H144.133V147.539H140V143.406ZM140 139.273H144.133V143.406H140V139.273ZM164.798 126.874H168.931V131.007H164.798V126.874ZM173.074 106.21H181.34V114.476H173.074V106.21ZM173.074 118.608H181.34V147.539H173.074V118.608ZM185.505 139.273H189.638V143.406H185.505V139.273ZM185.505 135.14H189.638V139.273H185.505V135.14ZM189.638 135.14H193.771V139.273H189.638V135.14ZM189.638 139.273H193.771V143.406H189.638V139.273ZM189.638 131.007H193.771V135.14H189.638V131.007ZM193.771 131.007H197.904V135.14H193.771V131.007ZM202.037 131.007H206.17V135.14H202.037V131.007ZM206.17 131.007H210.303V135.14H206.17V131.007ZM206.17 139.273H210.303V143.406H206.17V139.273ZM210.303 139.273H214.436V143.406H210.303V139.273ZM210.303 135.14H214.436V139.273H210.303V135.14ZM193.771 126.874H197.904V131.007H193.771V126.874ZM197.904 126.874H202.037V131.007H197.904V126.874ZM202.037 126.874H206.17V131.007H202.037V126.874ZM202.037 122.741H206.17V126.874H202.037V122.741ZM206.17 122.741H210.303V126.874H206.17V122.741ZM206.17 118.608H210.303V122.741H206.17V118.608ZM206.17 114.476H210.303V118.608H206.17V114.476ZM210.303 114.476H214.436V118.608H210.303V114.476ZM210.303 118.608H214.436V122.741H210.303V118.608ZM193.771 122.741H197.904V126.874H193.771V122.741ZM189.638 122.741H193.771V126.874H189.638V122.741ZM189.638 118.608H193.771V122.741H189.638V118.608ZM189.638 114.476H193.771V118.608H189.638V114.476ZM185.505 114.476H189.638V118.608H185.505V114.476ZM185.505 118.608H189.638V122.741H185.505V118.608ZM193.771 135.14H197.904V139.273H193.771V135.14ZM202.037 135.14H206.17V139.273H202.037V135.14ZM206.17 135.14H210.303V139.273H206.17V135.14ZM193.771 118.608H197.904V122.741H193.771V118.608ZM202.037 118.608H206.17V122.741H202.037V118.608ZM197.904 122.741H202.037V126.874H197.904V122.741ZM197.904 131.007H202.037V135.14H197.904V131.007ZM185.505 143.406H189.638V147.539H185.505V143.406ZM189.638 143.406H193.771V147.539H189.638V143.406ZM206.17 143.406H210.303V147.539H206.17V143.406ZM210.303 143.406H214.436V147.539H210.303V143.406ZM226.846 114.476H230.979V118.608H226.846V114.476ZM222.713 114.476H226.846V118.608H222.713V114.476ZM222.713 118.608H226.846V122.741H222.713V118.608ZM226.846 118.608H230.979V122.741H226.846V118.608ZM230.979 114.476H235.111V118.608H230.979V114.476ZM235.111 114.476H239.244V118.608H235.111V114.476ZM239.244 114.476H243.377V118.608H239.244V114.476ZM239.244 118.608H243.377V122.741H239.244V118.608ZM235.111 118.608H239.244V122.741H235.111V118.608ZM243.377 118.608H247.51V122.741H243.377V118.608ZM243.377 122.741H247.51V126.874H243.377V122.741ZM243.377 139.273H247.51V143.406H243.377V139.273ZM239.244 139.273H243.377V143.406H239.244V139.273ZM239.244 122.741H243.377V126.874H239.244V122.741ZM235.111 139.273H239.244V143.406H235.111V139.273ZM239.244 143.406H243.377V147.539H239.244V143.406ZM235.111 143.406H239.244V147.539H235.111V143.406ZM230.979 143.406H235.111V147.539H230.979V143.406ZM226.846 143.406H230.979V147.539H226.846V143.406ZM222.713 143.406H226.846V147.539H222.713V143.406ZM222.713 139.273H226.846V143.406H222.713V139.273ZM226.846 139.273H230.979V143.406H226.846V139.273ZM222.713 135.14H226.846V139.273H222.713V135.14ZM218.58 139.273H222.713V143.406H218.58V139.273ZM218.58 135.14H222.713V139.273H218.58V135.14ZM218.58 131.007H222.713V135.14H218.58V131.007ZM218.58 126.874H222.713V131.007H218.58V126.874ZM218.58 122.741H222.713V126.874H218.58V122.741ZM218.58 118.608H222.713V122.741H218.58V118.608ZM222.713 122.741H226.846V126.874H222.713V122.741ZM222.713 126.874H226.846V131.007H222.713V126.874ZM222.713 131.007H226.846V135.14H222.713V131.007ZM230.979 139.273H235.111V143.406H230.979V139.273ZM230.979 118.608H235.111V122.741H230.979V118.608ZM239.244 126.874H243.377V131.007H239.244V126.874ZM243.377 126.874H247.51V131.007H243.377V126.874ZM226.846 131.007H230.979V135.14H226.846V131.007ZM230.979 131.007H235.111V135.14H230.979V131.007ZM235.111 131.007H239.244V135.14H235.111V131.007ZM239.244 131.007H243.377V135.14H239.244V131.007ZM243.377 131.007H247.51V135.14H243.377V131.007ZM235.111 126.874H239.244V131.007H235.111V126.874ZM230.979 126.874H235.111V131.007H230.979V126.874ZM226.846 126.874H230.979V131.007H226.846V126.874ZM251.654 106.21H255.787V110.343H251.654V106.21ZM255.787 106.21H259.92V110.343H255.787V106.21ZM255.787 110.343H259.92V114.476H255.787V110.343ZM255.787 114.476H259.92V118.608H255.787V114.476ZM255.787 118.608H259.92V122.741H255.787V118.608ZM255.787 122.741H259.92V126.874H255.787V122.741ZM255.787 126.874H259.92V131.007H255.787V126.874ZM251.654 126.874H255.787V131.007H251.654V126.874ZM251.654 131.007H255.787V135.14H251.654V131.007ZM251.654 135.14H255.787V139.273H251.654V135.14ZM251.654 139.273H255.787V143.406H251.654V139.273ZM251.654 143.406H255.787V147.539H251.654V143.406ZM255.787 143.406H259.92V147.539H255.787V143.406ZM255.787 139.273H259.92V143.406H255.787V139.273ZM255.787 135.14H259.92V139.273H255.787V135.14ZM255.787 131.007H259.92V135.14H255.787V131.007ZM251.654 122.741H255.787V126.874H251.654V122.741ZM251.654 118.608H255.787V122.741H251.654V118.608ZM251.654 114.476H255.787V118.608H251.654V114.476ZM251.654 110.343H255.787V114.476H251.654V110.343Z" fill="black"/>
<defs>
<clipPath id="clip0_908_227">
<rect width="116" height="158" fill="white"/>
</clipPath>
</defs>
</svg>
