<svg width="598" height="158" viewBox="0 0 598 158" fill="none" xmlns="http://www.w3.org/2000/svg">
<g clip-path="url(#clip0_908_227)">
<path d="M108.5 7.5H7.5V150.5H108.5V7.5Z" stroke="black" stroke-width="15"/>
<path d="M44 58H28V143H44V58Z" fill="black"/>
<path fill-rule="evenodd" clip-rule="evenodd" d="M86 68H70V114L86 100.771V68Z" fill="black"/>
<path d="M76 58H44V74H76V58Z" fill="black"/>
<path d="M94 49H77V55H94V49Z" fill="black"/>
<path d="M94 66V49H88V66H94Z" fill="black"/>
<path fill-rule="evenodd" clip-rule="evenodd" d="M71 98H44V114H70L71 113V98Z" fill="black"/>
</g>
<path d="M154 105.571H160.429V112H154V105.571ZM160.429 105.571H166.857V112H160.429V105.571ZM160.429 99.1429H166.857V105.571H160.429V99.1429ZM160.429 92.7143H166.857V99.1429H160.429V92.7143ZM160.429 86.2857H166.857V92.7143H160.429V86.2857ZM160.429 79.8571H166.857V86.2857H160.429V79.8571ZM160.429 73.4286H166.857V79.8571H160.429V73.4286ZM154 73.4286H160.429V79.8571H154V73.4286ZM154 79.8571H160.429V86.2857H154V79.8571ZM154 86.2857H160.429V92.7143H154V86.2857ZM154 92.7143H160.429V99.1429H154V92.7143ZM154 99.1429H160.429V105.571H154V99.1429ZM154 67H160.429V73.4286H154V67ZM160.429 67H166.857V73.4286H160.429V67ZM160.429 60.5714H166.857V67H160.429V60.5714ZM160.429 54.1429H166.857V60.5714H160.429V54.1429ZM160.429 47.7143H166.857V54.1429H160.429V47.7143ZM154 47.7143H160.429V54.1429H154V47.7143ZM154 54.1429H160.429V60.5714H154V54.1429ZM154 60.5714H160.429V67H154V60.5714ZM173.336 67H179.765V73.4286H173.336V67ZM173.336 60.5714H179.765V67H173.336V60.5714ZM179.765 60.5714H186.193V67H179.765V60.5714ZM179.765 67H186.193V73.4286H179.765V67ZM179.765 73.4286H186.193V79.8571H179.765V73.4286ZM179.765 79.8571H186.193V86.2857H179.765V79.8571ZM179.765 86.2857H186.193V92.7143H179.765V86.2857ZM173.336 86.2857H179.765V92.7143H173.336V86.2857ZM173.336 79.8571H179.765V86.2857H173.336V79.8571ZM173.336 73.4286H179.765V79.8571H173.336V73.4286ZM173.336 92.7143H179.765V99.1429H173.336V92.7143ZM179.765 92.7143H186.193V99.1429H179.765V92.7143ZM179.765 99.1429H186.193V105.571H179.765V99.1429ZM179.765 105.571H186.193V112H179.765V105.571ZM173.336 105.571H179.765V112H173.336V105.571ZM173.336 99.1429H179.765V105.571H173.336V99.1429ZM205.479 105.571H211.907V112H205.479V105.571ZM211.907 105.571H218.336V112H211.907V105.571ZM211.907 99.1429H218.336V105.571H211.907V99.1429ZM211.907 92.7143H218.336V99.1429H211.907V92.7143ZM211.907 86.2857H218.336V92.7143H211.907V86.2857ZM211.907 79.8571H218.336V86.2857H211.907V79.8571ZM211.907 73.4286H218.336V79.8571H211.907V73.4286ZM211.907 67H218.336V73.4286H211.907V67ZM205.479 79.8571H211.907V86.2857H205.479V79.8571ZM205.479 86.2857H211.907V92.7143H205.479V86.2857ZM205.479 92.7143H211.907V99.1429H205.479V92.7143ZM205.479 99.1429H211.907V105.571H205.479V99.1429ZM205.479 73.4286H211.907V79.8571H205.479V73.4286ZM186.193 67H192.622V73.4286H186.193V67ZM192.622 67H199.05V73.4286H192.622V67ZM199.05 67H205.479V73.4286H199.05V67ZM199.05 60.5714H205.479V67H199.05V60.5714ZM205.479 60.5714H211.907V67H205.479V60.5714ZM205.479 67H211.907V73.4286H205.479V67ZM192.622 60.5714H199.05V67H192.622V60.5714ZM224.781 67H231.21V73.4286H224.781V67ZM224.781 60.5714H231.21V67H224.781V60.5714ZM231.21 60.5714H237.638V67H231.21V60.5714ZM231.21 67H237.638V73.4286H231.21V67ZM231.21 73.4286H237.638V79.8571H231.21V73.4286ZM231.21 79.8571H237.638V86.2857H231.21V79.8571ZM231.21 86.2857H237.638V92.7143H231.21V86.2857ZM224.781 86.2857H231.21V92.7143H224.781V86.2857ZM224.781 79.8571H231.21V86.2857H224.781V79.8571ZM224.781 73.4286H231.21V79.8571H224.781V73.4286ZM224.781 92.7143H231.21V99.1429H224.781V92.7143ZM231.21 92.7143H237.638V99.1429H231.21V92.7143ZM231.21 99.1429H237.638V105.571H231.21V99.1429ZM231.21 105.571H237.638V112H231.21V105.571ZM224.781 105.571H231.21V112H224.781V105.571ZM224.781 99.1429H231.21V105.571H224.781V99.1429ZM256.924 105.571H263.353V112H256.924V105.571ZM263.353 99.1429H269.781V105.571H263.353V99.1429ZM263.353 92.7143H269.781V99.1429H263.353V92.7143ZM263.353 86.2857H269.781V92.7143H263.353V86.2857ZM263.353 79.8571H269.781V86.2857H263.353V79.8571ZM263.353 73.4286H269.781V79.8571H263.353V73.4286ZM263.353 67H269.781V73.4286H263.353V67ZM256.924 79.8571H263.353V86.2857H256.924V79.8571ZM256.924 86.2857H263.353V92.7143H256.924V86.2857ZM256.924 92.7143H263.353V99.1429H256.924V92.7143ZM256.924 99.1429H263.353V105.571H256.924V99.1429ZM256.924 73.4286H263.353V79.8571H256.924V73.4286ZM237.638 67H244.067V73.4286H237.638V67ZM244.067 67H250.496V73.4286H244.067V67ZM250.496 67H256.924V73.4286H250.496V67ZM250.496 60.5714H256.924V67H250.496V60.5714ZM256.924 60.5714H263.353V67H256.924V60.5714ZM256.924 67H263.353V73.4286H256.924V67ZM244.067 60.5714H250.496V67H244.067V60.5714ZM224.781 47.7143H231.21V54.1429H224.781V47.7143ZM231.21 47.7143H237.638V54.1429H231.21V47.7143ZM231.21 54.1429H237.638V60.5714H231.21V54.1429ZM224.781 54.1429H231.21V60.5714H224.781V54.1429ZM237.638 105.571H244.067V112H237.638V105.571ZM244.067 105.571H250.496V112H244.067V105.571ZM250.496 105.571H256.924V112H250.496V105.571ZM250.496 99.1429H256.924V105.571H250.496V99.1429ZM244.067 99.1429H250.496V105.571H244.067V99.1429ZM237.638 99.1429H244.067V105.571H237.638V99.1429ZM289.084 60.5714H295.512V67H289.084V60.5714ZM282.655 60.5714H289.084V67H282.655V60.5714ZM282.655 67H289.084V73.4286H282.655V67ZM289.084 67H295.512V73.4286H289.084V67ZM295.512 60.5714H301.941V67H295.512V60.5714ZM301.941 60.5714H308.369V67H301.941V60.5714ZM308.369 60.5714H314.798V67H308.369V60.5714ZM308.369 67H314.798V73.4286H308.369V67ZM301.941 67H308.369V73.4286H301.941V67ZM308.369 79.8571H314.798V86.2857H308.369V79.8571ZM314.798 67H321.227V73.4286H314.798V67ZM314.798 73.4286H321.227V79.8571H314.798V73.4286ZM314.798 79.8571H321.227V86.2857H314.798V79.8571ZM314.798 86.2857H321.227V92.7143H314.798V86.2857ZM314.798 92.7143H321.227V99.1429H314.798V92.7143ZM314.798 99.1429H321.227V105.571H314.798V99.1429ZM308.369 99.1429H314.798V105.571H308.369V99.1429ZM308.369 92.7143H314.798V99.1429H308.369V92.7143ZM308.369 86.2857H314.798V92.7143H308.369V86.2857ZM308.369 73.4286H314.798V79.8571H308.369V73.4286ZM301.941 99.1429H308.369V105.571H301.941V99.1429ZM308.369 105.571H314.798V112H308.369V105.571ZM301.941 105.571H308.369V112H301.941V105.571ZM295.512 105.571H301.941V112H295.512V105.571ZM289.084 105.571H295.512V112H289.084V105.571ZM282.655 105.571H289.084V112H282.655V105.571ZM282.655 99.1429H289.084V105.571H282.655V99.1429ZM289.084 99.1429H295.512V105.571H289.084V99.1429ZM282.655 92.7143H289.084V99.1429H282.655V92.7143ZM276.227 99.1429H282.655V105.571H276.227V99.1429ZM276.227 92.7143H282.655V99.1429H276.227V92.7143ZM276.227 86.2857H282.655V92.7143H276.227V86.2857ZM276.227 79.8571H282.655V86.2857H276.227V79.8571ZM276.227 73.4286H282.655V79.8571H276.227V73.4286ZM276.227 67H282.655V73.4286H276.227V67ZM282.655 73.4286H289.084V79.8571H282.655V73.4286ZM282.655 79.8571H289.084V86.2857H282.655V79.8571ZM282.655 86.2857H289.084V92.7143H282.655V86.2857ZM295.512 99.1429H301.941V105.571H295.512V99.1429ZM295.512 67H301.941V73.4286H295.512V67ZM327.672 99.1429H334.1V105.571H327.672V99.1429ZM327.672 92.7143H334.1V99.1429H327.672V92.7143ZM334.1 92.7143H340.529V99.1429H334.1V92.7143ZM334.1 99.1429H340.529V105.571H334.1V99.1429ZM334.1 86.2857H340.529V92.7143H334.1V86.2857ZM340.529 86.2857H346.958V92.7143H340.529V86.2857ZM353.386 86.2857H359.815V92.7143H353.386V86.2857ZM359.815 86.2857H366.243V92.7143H359.815V86.2857ZM359.815 99.1429H366.243V105.571H359.815V99.1429ZM366.243 99.1429H372.672V105.571H366.243V99.1429ZM366.243 92.7143H372.672V99.1429H366.243V92.7143ZM340.529 79.8571H346.958V86.2857H340.529V79.8571ZM346.958 79.8571H353.386V86.2857H346.958V79.8571ZM353.386 79.8571H359.815V86.2857H353.386V79.8571ZM353.386 73.4286H359.815V79.8571H353.386V73.4286ZM359.815 73.4286H366.243V79.8571H359.815V73.4286ZM359.815 67H366.243V73.4286H359.815V67ZM359.815 60.5714H366.243V67H359.815V60.5714ZM366.243 60.5714H372.672V67H366.243V60.5714ZM366.243 67H372.672V73.4286H366.243V67ZM340.529 73.4286H346.958V79.8571H340.529V73.4286ZM334.1 73.4286H340.529V79.8571H334.1V73.4286ZM334.1 67H340.529V73.4286H334.1V67ZM334.1 60.5714H340.529V67H334.1V60.5714ZM327.672 60.5714H334.1V67H327.672V60.5714ZM327.672 67H334.1V73.4286H327.672V67ZM340.529 92.7143H346.958V99.1429H340.529V92.7143ZM353.386 92.7143H359.815V99.1429H353.386V92.7143ZM359.815 92.7143H366.243V99.1429H359.815V92.7143ZM340.529 67H346.958V73.4286H340.529V67ZM353.386 67H359.815V73.4286H353.386V67ZM346.958 73.4286H353.386V79.8571H346.958V73.4286ZM346.958 86.2857H353.386V92.7143H346.958V86.2857ZM327.672 105.571H334.1V112H327.672V105.571ZM334.1 105.571H340.529V112H334.1V105.571ZM359.815 105.571H366.243V112H359.815V105.571ZM366.243 105.571H372.672V112H366.243V105.571ZM404.781 47.7143H411.21V54.1429H404.781V47.7143ZM411.21 47.7143H417.638V54.1429H411.21V47.7143ZM417.638 47.7143H424.067V54.1429H417.638V47.7143ZM424.067 47.7143H430.496V54.1429H424.067V47.7143ZM430.496 47.7143H436.924V54.1429H430.496V47.7143ZM436.924 47.7143H443.353V54.1429H436.924V47.7143ZM436.924 54.1429H443.353V60.5714H436.924V54.1429ZM430.496 54.1429H436.924V60.5714H430.496V54.1429ZM424.067 54.1429H430.496V60.5714H424.067V54.1429ZM417.638 54.1429H424.067V60.5714H417.638V54.1429ZM411.21 54.1429H417.638V60.5714H411.21V54.1429ZM404.781 54.1429H411.21V60.5714H404.781V54.1429ZM443.353 54.1429H449.781V60.5714H443.353V54.1429ZM436.924 60.5714H443.353V67H436.924V60.5714ZM443.353 60.5714H449.781V67H443.353V60.5714ZM443.353 67H449.781V73.4286H443.353V67ZM443.353 73.4286H449.781V79.8571H443.353V73.4286ZM436.924 73.4286H443.353V79.8571H436.924V73.4286ZM436.924 67H443.353V73.4286H436.924V67ZM436.924 79.8571H443.353V86.2857H436.924V79.8571ZM436.924 86.2857H443.353V92.7143H436.924V86.2857ZM430.496 86.2857H436.924V92.7143H430.496V86.2857ZM430.496 79.8571H436.924V86.2857H430.496V79.8571ZM424.067 79.8571H430.496V86.2857H424.067V79.8571ZM424.067 86.2857H430.496V92.7143H424.067V86.2857ZM417.638 86.2857H424.067V92.7143H417.638V86.2857ZM417.638 79.8571H424.067V86.2857H417.638V79.8571ZM411.21 79.8571H417.638V86.2857H411.21V79.8571ZM404.781 79.8571H411.21V86.2857H404.781V79.8571ZM404.781 86.2857H411.21V92.7143H404.781V86.2857ZM411.21 86.2857H417.638V92.7143H411.21V86.2857ZM404.781 60.5714H411.21V67H404.781V60.5714ZM411.21 60.5714H417.638V67H411.21V60.5714ZM411.21 67H417.638V73.4286H411.21V67ZM411.21 73.4286H417.638V79.8571H411.21V73.4286ZM404.781 67H411.21V73.4286H404.781V67ZM404.781 73.4286H411.21V79.8571H404.781V73.4286ZM404.781 92.7143H411.21V99.1429H404.781V92.7143ZM411.21 92.7143H417.638V99.1429H411.21V92.7143ZM411.21 99.1429H417.638V105.571H411.21V99.1429ZM411.21 105.571H417.638V112H411.21V105.571ZM404.781 105.571H411.21V112H404.781V105.571ZM404.781 99.1429H411.21V105.571H404.781V99.1429ZM443.353 79.8571H449.781V86.2857H443.353V79.8571ZM456.227 47.7143H469.084V60.5714H456.227V47.7143ZM456.227 67H469.084V112H456.227V67ZM475.562 99.1429H481.991V105.571H475.562V99.1429ZM475.562 92.7143H481.991V99.1429H475.562V92.7143ZM481.991 92.7143H488.42V99.1429H481.991V92.7143ZM481.991 99.1429H488.42V105.571H481.991V99.1429ZM481.991 86.2857H488.42V92.7143H481.991V86.2857ZM488.42 86.2857H494.848V92.7143H488.42V86.2857ZM501.277 86.2857H507.705V92.7143H501.277V86.2857ZM507.705 86.2857H514.134V92.7143H507.705V86.2857ZM507.705 99.1429H514.134V105.571H507.705V99.1429ZM514.134 99.1429H520.562V105.571H514.134V99.1429ZM514.134 92.7143H520.562V99.1429H514.134V92.7143ZM488.42 79.8571H494.848V86.2857H488.42V79.8571ZM494.848 79.8571H501.277V86.2857H494.848V79.8571ZM501.277 79.8571H507.705V86.2857H501.277V79.8571ZM501.277 73.4286H507.705V79.8571H501.277V73.4286ZM507.705 73.4286H514.134V79.8571H507.705V73.4286ZM507.705 67H514.134V73.4286H507.705V67ZM507.705 60.5714H514.134V67H507.705V60.5714ZM514.134 60.5714H520.562V67H514.134V60.5714ZM514.134 67H520.562V73.4286H514.134V67ZM488.42 73.4286H494.848V79.8571H488.42V73.4286ZM481.991 73.4286H488.42V79.8571H481.991V73.4286ZM481.991 67H488.42V73.4286H481.991V67ZM481.991 60.5714H488.42V67H481.991V60.5714ZM475.562 60.5714H481.991V67H475.562V60.5714ZM475.562 67H481.991V73.4286H475.562V67ZM488.42 92.7143H494.848V99.1429H488.42V92.7143ZM501.277 92.7143H507.705V99.1429H501.277V92.7143ZM507.705 92.7143H514.134V99.1429H507.705V92.7143ZM488.42 67H494.848V73.4286H488.42V67ZM501.277 67H507.705V73.4286H501.277V67ZM494.848 73.4286H501.277V79.8571H494.848V73.4286ZM494.848 86.2857H501.277V92.7143H494.848V86.2857ZM475.562 105.571H481.991V112H475.562V105.571ZM481.991 105.571H488.42V112H481.991V105.571ZM507.705 105.571H514.134V112H507.705V105.571ZM514.134 105.571H520.562V112H514.134V105.571ZM539.865 60.5714H546.294V67H539.865V60.5714ZM533.436 60.5714H539.865V67H533.436V60.5714ZM533.436 67H539.865V73.4286H533.436V67ZM539.865 67H546.294V73.4286H539.865V67ZM546.294 60.5714H552.722V67H546.294V60.5714ZM552.722 60.5714H559.151V67H552.722V60.5714ZM559.151 60.5714H565.579V67H559.151V60.5714ZM559.151 67H565.579V73.4286H559.151V67ZM552.722 67H559.151V73.4286H552.722V67ZM565.579 67H572.008V73.4286H565.579V67ZM565.579 73.4286H572.008V79.8571H565.579V73.4286ZM565.579 99.1429H572.008V105.571H565.579V99.1429ZM559.151 99.1429H565.579V105.571H559.151V99.1429ZM559.151 73.4286H565.579V79.8571H559.151V73.4286ZM552.722 99.1429H559.151V105.571H552.722V99.1429ZM559.151 105.571H565.579V112H559.151V105.571ZM552.722 105.571H559.151V112H552.722V105.571ZM546.294 105.571H552.722V112H546.294V105.571ZM539.865 105.571H546.294V112H539.865V105.571ZM533.436 105.571H539.865V112H533.436V105.571ZM533.436 99.1429H539.865V105.571H533.436V99.1429ZM539.865 99.1429H546.294V105.571H539.865V99.1429ZM533.436 92.7143H539.865V99.1429H533.436V92.7143ZM527.008 99.1429H533.436V105.571H527.008V99.1429ZM527.008 92.7143H533.436V99.1429H527.008V92.7143ZM527.008 86.2857H533.436V92.7143H527.008V86.2857ZM527.008 79.8571H533.436V86.2857H527.008V79.8571ZM527.008 73.4286H533.436V79.8571H527.008V73.4286ZM527.008 67H533.436V73.4286H527.008V67ZM533.436 73.4286H539.865V79.8571H533.436V73.4286ZM533.436 79.8571H539.865V86.2857H533.436V79.8571ZM533.436 86.2857H539.865V92.7143H533.436V86.2857ZM546.294 99.1429H552.722V105.571H546.294V99.1429ZM546.294 67H552.722V73.4286H546.294V67ZM559.151 79.8571H565.579V86.2857H559.151V79.8571ZM565.579 79.8571H572.008V86.2857H565.579V79.8571ZM539.865 86.2857H546.294V92.7143H539.865V86.2857ZM546.294 86.2857H552.722V92.7143H546.294V86.2857ZM552.722 86.2857H559.151V92.7143H552.722V86.2857ZM559.151 86.2857H565.579V92.7143H559.151V86.2857ZM565.579 86.2857H572.008V92.7143H565.579V86.2857ZM552.722 79.8571H559.151V86.2857H552.722V79.8571ZM546.294 79.8571H552.722V86.2857H546.294V79.8571ZM539.865 79.8571H546.294V86.2857H539.865V79.8571ZM578.453 47.7143H584.882V54.1429H578.453V47.7143ZM584.882 47.7143H591.31V54.1429H584.882V47.7143ZM584.882 54.1429H591.31V60.5714H584.882V54.1429ZM584.882 60.5714H591.31V67H584.882V60.5714ZM584.882 67H591.31V73.4286H584.882V67ZM584.882 73.4286H591.31V79.8571H584.882V73.4286ZM584.882 79.8571H591.31V86.2857H584.882V79.8571ZM578.453 79.8571H584.882V86.2857H578.453V79.8571ZM578.453 86.2857H584.882V92.7143H578.453V86.2857ZM578.453 92.7143H584.882V99.1429H578.453V92.7143ZM578.453 99.1429H584.882V105.571H578.453V99.1429ZM578.453 105.571H584.882V112H578.453V105.571ZM584.882 105.571H591.31V112H584.882V105.571ZM584.882 99.1429H591.31V105.571H584.882V99.1429ZM584.882 92.7143H591.31V99.1429H584.882V92.7143ZM584.882 86.2857H591.31V92.7143H584.882V86.2857ZM578.453 73.4286H584.882V79.8571H578.453V73.4286ZM578.453 67H584.882V73.4286H578.453V67ZM578.453 60.5714H584.882V67H578.453V60.5714ZM578.453 54.1429H584.882V60.5714H578.453V54.1429Z" fill="black"/>
<defs>
<clipPath id="clip0_908_227">
<rect width="116" height="158" fill="white"/>
</clipPath>
</defs>
</svg>
